<svg width="24" height="24" viewBox="0 0 24 24" fill="none" xmlns="http://www.w3.org/2000/svg">
<path d="M12 0C5.37257 0 0 5.37257 0 12C0 18.6274 5.37257 24 12 24C18.6274 24 24 18.6274 24 12C23.9929 5.37554 18.6245 0.00708147 12 0ZM12.8571 12C12.8571 12.4734 12.4734 12.8571 12 12.8571H5.14285C4.66945 12.8571 4.28569 12.4734 4.28569 12C4.28569 11.5266 4.66945 11.1428 5.14285 11.1428H11.1429V5.14285C11.1429 4.66945 11.5266 4.28569 12 4.28569C12.4734 4.28569 12.8571 4.66945 12.8571 5.14285V12Z" fill="#753ED6"/>
</svg>
