<svg width="18" height="24" viewBox="0 0 18 24" fill="none" xmlns="http://www.w3.org/2000/svg">
<path d="M8.92205 0C4.33332 0 0.600098 3.73322 0.600098 8.32195C0.600098 10.1989 1.91677 13.2923 4.5135 17.5162C6.41204 20.6043 8.33743 23.2105 8.35665 23.2365L8.92205 24L9.48746 23.2365C9.50668 23.2105 11.4321 20.6043 13.3306 17.5162C15.9273 13.2923 17.244 10.1989 17.244 8.32195C17.244 3.73322 13.5108 0 8.92205 0ZM8.92205 12.9518C6.29799 12.9518 4.16321 10.817 4.16321 8.193C4.16321 5.56894 6.29804 3.43416 8.92205 3.43416C11.5461 3.43416 13.6809 5.56898 13.6809 8.193C13.6809 10.817 11.5461 12.9518 8.92205 12.9518Z" fill="#753ED6"/>
</svg>
