<svg width="20" height="20" viewBox="0 0 20 20" fill="none" xmlns="http://www.w3.org/2000/svg">
<path fill-rule="evenodd" clip-rule="evenodd" d="M18.8866 18.084C19.0737 17.9026 19.261 17.7208 19.4448 17.5338C20.1866 16.7926 20.1866 15.8918 19.4353 15.1223C18.5619 14.2403 17.6887 13.3677 16.8058 12.495C16.0922 11.7819 15.1907 11.7819 14.4676 12.495L14.1384 12.823L14.0582 12.9029C13.6473 13.3116 13.2351 13.7217 12.8335 14.1371C12.6927 14.2872 12.5612 14.3247 12.3828 14.2215C12.2405 14.143 12.0953 14.0719 11.9507 14.0011L11.9489 14.0002C11.7312 13.8938 11.5149 13.788 11.3122 13.6585C9.71568 12.6639 8.38222 11.3784 7.20838 9.93339C6.62611 9.22024 6.10021 8.45082 5.74341 7.58755C5.66825 7.40927 5.68704 7.29668 5.82787 7.15592C6.38105 6.63142 6.91534 6.08824 7.44977 5.54491L7.45263 5.54201C8.20382 4.78195 8.20382 3.89993 7.45263 3.13988C7.17115 2.85247 6.8857 2.56921 6.59871 2.28458C6.45461 2.14175 6.31033 1.99859 6.16606 1.85437C6.01885 1.70739 5.87286 1.56041 5.72686 1.41341C5.43469 1.11939 5.14235 0.825349 4.84191 0.531328C4.11882 -0.172408 3.21732 -0.181795 2.49423 0.531328C2.27239 0.749115 2.0552 0.968408 1.83836 1.1874C1.51327 1.51563 1.1887 1.84321 0.850851 2.16402C0.334258 2.66133 0.071393 3.26186 0.0150279 3.9656C-0.0694335 5.11037 0.212219 6.18945 0.606602 7.24977C1.42364 9.43607 2.65384 11.369 4.14691 13.1425C6.16606 15.5446 8.57941 17.4494 11.4061 18.8193C12.6739 19.4386 13.998 19.9172 15.4254 19.9923C16.4021 20.0486 17.266 19.8046 17.9515 19.0352C18.2468 18.7046 18.5646 18.3964 18.8834 18.0871L18.8866 18.084Z" fill="#753ED6"/>
</svg>
